<?xml version="1.0" encoding="UTF-8" standalone="no"?>
<!-- Created with Inkscape (http://www.inkscape.org/) -->

<svg
   xmlns:dc="http://purl.org/dc/elements/1.1/"
   xmlns:cc="http://creativecommons.org/ns#"
   xmlns:rdf="http://www.w3.org/1999/02/22-rdf-syntax-ns#"
   xmlns:svg="http://www.w3.org/2000/svg"
   xmlns="http://www.w3.org/2000/svg"
   xmlns:sodipodi="http://sodipodi.sourceforge.net/DTD/sodipodi-0.dtd"
   xmlns:inkscape="http://www.inkscape.org/namespaces/inkscape"
   width="100.54916"
   height="125.68523"
   viewBox="0 0 26.603632 33.254219"
   version="1.1"
   id="svg88135"
   inkscape:version="0.92.3 (2405546, 2018-03-11)"
   sodipodi:docname="lightbulb.svg">
  <defs
     id="defs88129">
    <clipPath
       clipPathUnits="userSpaceOnUse"
       id="clipPath63263">
      <rect
         style="fill:#0000ff;fill-opacity:0.09810127;fill-rule:evenodd;stroke-width:0.23382328"
         id="rect63265"
         width="23.051832"
         height="56.943214"
         x="-93.758377"
         y="274.8302" />
    </clipPath>
    <clipPath
       clipPathUnits="userSpaceOnUse"
       id="clipPath63257">
      <rect
         style="fill:#0000ff;fill-rule:evenodd;stroke-width:0.28095475"
         id="rect63259"
         width="23.384308"
         height="59.559959"
         x="-52.747086"
         y="267.44681" />
    </clipPath>
    <clipPath
       clipPathUnits="userSpaceOnUse"
       id="clipPath63249">
      <rect
         style="fill:#0000ff;fill-rule:evenodd;stroke-width:0.31385976"
         id="rect63251"
         width="21.814621"
         height="57.515461"
         x="-34.649853"
         y="267.26486" />
    </clipPath>
  </defs>
  <sodipodi:namedview
     id="base"
     pagecolor="#ffffff"
     bordercolor="#666666"
     borderopacity="1.0"
     inkscape:pageopacity="0.0"
     inkscape:pageshadow="2"
     inkscape:zoom="1.979899"
     inkscape:cx="5.4857612"
     inkscape:cy="81.277408"
     inkscape:document-units="px"
     inkscape:current-layer="layer1"
     showgrid="false"
     units="px"
     fit-margin-top="0"
     fit-margin-left="0"
     fit-margin-right="0"
     fit-margin-bottom="0"
     showborder="false"
     inkscape:window-width="1366"
     inkscape:window-height="745"
     inkscape:window-x="-8"
     inkscape:window-y="-8"
     inkscape:window-maximized="1" />
  <metadata
     id="metadata88132">
    <rdf:RDF>
      <cc:Work
         rdf:about="">
        <dc:format>image/svg+xml</dc:format>
        <dc:type
           rdf:resource="http://purl.org/dc/dcmitype/StillImage" />
        <dc:title></dc:title>
      </cc:Work>
    </rdf:RDF>
  </metadata>
  <g
     inkscape:label="Layer 1"
     inkscape:groupmode="layer"
     id="layer1"
     transform="translate(-146.42806,-74.375142)">
    <g
       inkscape:label="Layer 1"
       id="layer1-81"
       transform="matrix(0.24547896,0,0,0.24547896,112.78231,44.867361)">
      <g
         id="g60928"
         transform="matrix(0.26458333,0,0,0.26458333,123.51552,120.20493)">
        <path
           id="path60798"
           d="m 281.735,501.611 v -26.849 h -51.469 v 26.849 c 0,5.714 4.606,10.389 10.237,10.389 h 30.995 c 5.631,0 10.237,-4.675 10.237,-10.389 z"
           style="fill:#707487"
           inkscape:connector-curvature="0" />
        <path
           id="path60800"
           d="m 256,501.611 v -26.849 h -25.735 v 26.849 c 0,5.714 4.606,10.389 10.237,10.389 h 25.735 C 260.607,512 256,507.325 256,501.611 Z"
           style="fill:#5b5d6e"
           inkscape:connector-curvature="0" />
        <path
           id="path60802"
           d="m 200.31,366.743 v 42.676 h 111.381 v -41.983 c 0,-15.105 7.726,-29.076 20.332,-37.108 40.332,-25.701 67.144,-71.244 67.144,-123.145 0,-79.936 -63.603,-144.796 -142.248,-145.297 -78.991,-0.503 -144.085,65.129 -144.085,145.299 0,52.232 27.157,98.026 67.921,123.635 12.224,7.679 19.555,21.333 19.555,35.923 z"
           style="fill:#0669f0;fill-opacity:0.98039216"
           inkscape:connector-curvature="0" />
        <path
           id="path60804"
           d="M 201.36,330.819 C 160.596,305.211 133.439,259.417 133.439,207.184 133.438,130.848 192.457,67.695 266.295,62.263 c -3.1,-0.223 -6.225,-0.358 -9.376,-0.378 -78.991,-0.503 -144.085,65.129 -144.085,145.299 0,52.232 27.157,98.026 67.921,123.635 12.223,7.679 19.555,21.334 19.555,35.923 v 42.676 h 20.606 v -42.676 c 0,-14.589 -7.331,-28.243 -19.556,-35.923 z"
           style="fill:#065bcc;fill-opacity:0.65189873"
           inkscape:connector-curvature="0" />
        <g
           id="g60810">
          <path
             id="path60806"
             d="M 312.815,441.583 H 199.186 c -6.6,0 -12,-5.4 -12,-12 v -11.208 c 0,-6.6 5.4,-12 12,-12 h 113.629 c 6.6,0 12,5.4 12,12 v 11.208 c 0,6.6 -5.4,12 -12,12 z"
             style="fill:#e4eaf8"
             inkscape:connector-curvature="0" />
          <path
             id="path60808"
             d="M 312.815,476.792 H 199.186 c -6.6,0 -12,-5.4 -12,-12 v -11.208 c 0,-6.6 5.4,-12 12,-12 h 113.629 c 6.6,0 12,5.4 12,12 v 11.208 c 0,6.6 -5.4,12 -12,12 z"
             style="fill:#e4eaf8"
             inkscape:connector-curvature="0" />
        </g>
        <g
           id="g60816">
          <path
             id="path60812"
             d="M 312.815,423.978 H 199.186 c -5.446,0 -10.065,-3.734 -11.518,-8.802 -0.308,1.074 -0.482,2.205 -0.482,3.377 v 10.85 c 0,6.698 5.4,12.179 12,12.179 h 113.629 c 6.6,0 12,-5.48 12,-12.179 v -10.85 c 0,-1.172 -0.174,-2.303 -0.482,-3.377 -1.453,5.068 -6.073,8.802 -11.518,8.802 z"
             style="fill:#d8dce5"
             inkscape:connector-curvature="0" />
          <path
             id="path60814"
             d="M 312.815,459.187 H 199.186 c -5.446,0 -10.065,-3.734 -11.518,-8.802 -0.308,1.074 -0.482,2.205 -0.482,3.377 v 10.85 c 0,6.698 5.4,12.179 12,12.179 h 113.629 c 6.6,0 12,-5.481 12,-12.179 v -10.85 c 0,-1.172 -0.174,-2.302 -0.482,-3.377 -1.453,5.067 -6.073,8.802 -11.518,8.802 z"
             style="fill:#d8dce5"
             inkscape:connector-curvature="0" />
        </g>
        <path
           id="path60818"
           d="m 354.672,191.115 h -28.431 c -1.806,-7.837 -4.844,-15.191 -8.909,-21.836 l 20.102,-20.402 c 1.222,-1.24 1.222,-3.25 0,-4.489 l -18.901,-19.183 c -1.222,-1.239 -3.202,-1.239 -4.424,0 l -20.103,20.402 c -6.547,-4.126 -13.792,-7.208 -21.515,-9.041 v -28.854 c 0,-1.753 -1.4,-3.174 -3.128,-3.174 h -26.73 c -1.727,0 -3.128,1.421 -3.128,3.174 v 28.854 c -7.723,1.834 -14.968,4.916 -21.516,9.042 l -20.102,-20.402 c -1.222,-1.239 -3.202,-1.239 -4.424,0 l -18.901,19.183 c -1.221,1.239 -1.221,3.249 0,4.489 l 20.102,20.402 c -4.065,6.644 -7.102,13.997 -8.909,21.836 h -28.431 c -1.727,0 -3.127,1.421 -3.127,3.174 v 27.128 c 0,1.753 1.4,3.174 3.127,3.174 h 28.431 c 1.806,7.837 4.843,15.19 8.909,21.835 l -20.102,20.402 c -1.221,1.24 -1.221,3.249 0,4.489 l 18.901,19.182 c 1.222,1.24 3.202,1.24 4.424,0 l 20.102,-20.402 c 6.547,4.126 13.792,7.209 21.516,9.042 v 28.855 c 0,1.753 1.4,3.174 3.128,3.174 h 26.73 c 1.728,0 3.128,-1.421 3.128,-3.174 V 279.14 c 7.722,-1.833 14.968,-4.916 21.515,-9.042 l 20.103,20.402 c 1.222,1.24 3.202,1.24 4.424,0 l 18.901,-19.182 c 1.222,-1.24 1.222,-3.249 0,-4.489 l -20.102,-20.402 c 4.065,-6.644 7.103,-13.997 8.909,-21.835 h 28.431 c 1.728,0 3.128,-1.421 3.128,-3.174 V 194.29 c 0,-1.753 -1.4,-3.175 -3.128,-3.175 z M 256,241.02 c -18.049,0 -32.679,-14.848 -32.679,-33.166 0,-18.317 14.63,-33.166 32.679,-33.166 18.048,0 32.679,14.848 32.679,33.166 0,18.316 -14.63,33.166 -32.679,33.166 z"
           style="fill:#ececec"
           inkscape:connector-curvature="0" />
        <g
           id="g60826">
          <path
             id="path60820"
             d="m 194.668,169.279 c -4.065,6.644 -7.102,13.997 -8.909,21.836 h 16.786 c 1.867,0 3.494,-1.267 3.998,-3.091 1.662,-6.014 4.057,-11.716 7.09,-16.998 0.595,-1.035 0.45,-2.341 -0.385,-3.188 l -18.682,-18.96 c -1.221,-1.24 -1.221,-3.25 0,-4.489 l 11.112,-11.278 -7.788,-7.904 c -1.222,-1.24 -3.202,-1.24 -4.424,0 l -18.901,19.183 c -1.221,1.24 -1.221,3.25 0,4.489 z"
             style="fill:#999999;fill-opacity:1"
             inkscape:connector-curvature="0" />
          <path
             id="path60822"
             d="M 174.201,221.418 V 194.29 c 0,-1.753 1.4,-3.174 3.127,-3.174 h -20.001 c -1.727,0 -3.127,1.421 -3.127,3.174 v 27.128 c 0,1.753 1.4,3.174 3.127,3.174 h 20.001 c -1.727,0 -3.127,-1.421 -3.127,-3.174 z"
             style="fill:#999999"
             inkscape:connector-curvature="0" />
          <path
             id="path60824"
             d="m 194.567,271.318 c -1.222,-1.24 -1.222,-3.25 0,-4.489 l 18.341,-18.614 c 1.01,-1.025 1.246,-2.616 0.533,-3.872 -3.077,-5.425 -5.484,-11.287 -7.117,-17.474 -0.356,-1.348 -1.571,-2.277 -2.946,-2.277 H 185.76 c 1.806,7.837 4.843,15.19 8.909,21.835 l -20.102,20.402 c -1.221,1.24 -1.221,3.25 0,4.489 l 18.901,19.182 c 1.222,1.24 3.202,1.24 4.424,0 l 7.788,-7.904 z"
             style="fill:#999999;fill-opacity:1"
             inkscape:connector-curvature="0" />
        </g>
        <g
           id="g60842">
          <path
             id="path60828"
             d="M 83.579,215.466 H 58.698 c -4.142,0 -7.5,-3.408 -7.5,-7.612 0,-4.204 3.358,-7.612 7.5,-7.612 h 24.881 c 4.142,0 7.5,3.408 7.5,7.612 0,4.204 -3.358,7.612 -7.5,7.612 z"
             style="fill:#0569f1;fill-opacity:0.98039216"
             inkscape:connector-curvature="0" />
          <path
             id="path60830"
             d="m 453.302,215.466 h -24.881 c -4.142,0 -7.5,-3.408 -7.5,-7.612 0,-4.204 3.358,-7.612 7.5,-7.612 h 24.881 c 4.142,0 7.5,3.408 7.5,7.612 0,4.204 -3.358,7.612 -7.5,7.612 z"
             style="fill:#0569f1;fill-opacity:0.98039216"
             inkscape:connector-curvature="0" />
          <path
             id="path60832"
             d="m 111.182,354.828 c -2.929,-2.973 -2.929,-7.792 0,-10.764 l 17.594,-17.856 c 2.929,-2.972 7.678,-2.973 10.606,0 2.929,2.973 2.929,7.792 0,10.764 l -17.594,17.856 c -2.927,2.973 -7.677,2.973 -10.606,0 z"
             style="fill:#0569f1;fill-opacity:0.98039216"
             inkscape:connector-curvature="0" />
          <path
             id="path60834"
             d="m 372.618,89.499 c -2.929,-2.972 -2.929,-7.792 0,-10.764 l 17.594,-17.856 c 2.929,-2.972 7.678,-2.972 10.606,0 2.929,2.972 2.929,7.792 0,10.764 l -17.594,17.856 c -2.929,2.973 -7.678,2.973 -10.606,0 z"
             style="fill:#0569f1;fill-opacity:0.98039216"
             inkscape:connector-curvature="0" />
          <path
             id="path60836"
             d="m 256,40.475 c -4.142,0 -7.5,-3.408 -7.5,-7.612 V 7.612 C 248.5,3.408 251.858,0 256,0 c 4.142,0 7.5,3.408 7.5,7.612 v 25.252 c 0,4.203 -3.357,7.611 -7.5,7.611 z"
             style="fill:#0569f1;fill-opacity:0.98039216"
             inkscape:connector-curvature="0" />
          <path
             id="path60838"
             d="m 390.21,354.828 -17.594,-17.856 c -2.929,-2.972 -2.929,-7.792 0,-10.764 2.929,-2.972 7.678,-2.972 10.606,0 l 17.594,17.856 c 2.929,2.972 2.929,7.792 0,10.764 -2.928,2.973 -7.677,2.973 -10.606,0 z"
             style="fill:#0569f1;fill-opacity:0.98039216"
             inkscape:connector-curvature="0" />
          <path
             id="path60840"
             d="M 128.777,89.499 111.183,71.643 c -2.929,-2.972 -2.929,-7.792 0,-10.764 2.929,-2.972 7.678,-2.972 10.606,0 l 17.594,17.856 c 2.929,2.972 2.929,7.792 0,10.764 -2.929,2.973 -7.678,2.973 -10.606,0 z"
             style="fill:#0569f1;fill-opacity:0.98039216"
             inkscape:connector-curvature="0" />
        </g>
        <g
           id="g60848">
          <path
             id="path60844"
             d="m 259.508,107.711 c 0,-1.753 1.4,-3.174 3.128,-3.174 h -20.001 c -1.727,0 -3.128,1.421 -3.128,3.174 v 28.854 h 15.559 c 2.468,-0.056 4.441,-2.453 4.441,-4.959 v -23.895 z"
             style="fill:#999999;fill-opacity:1"
             inkscape:connector-curvature="0" />
          <path
             id="path60846"
             d="m 259.508,307.996 v -25.727 c 0,-1.727 -1.38,-3.127 -3.081,-3.127 h -16.92 v 28.855 c 0,1.753 1.4,3.174 3.128,3.174 h 20.001 c -1.727,0 -3.128,-1.422 -3.128,-3.175 z"
             style="fill:#999999;fill-opacity:1"
             inkscape:connector-curvature="0" />
        </g>
        <g
           id="g60850" />
        <g
           id="g60852" />
        <g
           id="g60854" />
        <g
           id="g60856" />
        <g
           id="g60858" />
        <g
           id="g60860" />
        <g
           id="g60862" />
        <g
           id="g60864" />
        <g
           id="g60866" />
        <g
           id="g60868" />
        <g
           id="g60870" />
        <g
           id="g60872" />
        <g
           id="g60874" />
        <g
           id="g60876" />
        <g
           id="g60878" />
      </g>
    </g>
  </g>
</svg>
