<?xml version="1.0" encoding="UTF-8" standalone="no"?>
<!-- Created with Inkscape (http://www.inkscape.org/) -->

<svg
   xmlns:dc="http://purl.org/dc/elements/1.1/"
   xmlns:cc="http://creativecommons.org/ns#"
   xmlns:rdf="http://www.w3.org/1999/02/22-rdf-syntax-ns#"
   xmlns:svg="http://www.w3.org/2000/svg"
   xmlns="http://www.w3.org/2000/svg"
   xmlns:sodipodi="http://sodipodi.sourceforge.net/DTD/sodipodi-0.dtd"
   xmlns:inkscape="http://www.inkscape.org/namespaces/inkscape"
   width="61.369019"
   height="52.798946"
   viewBox="0 0 16.237219 13.969722"
   version="1.1"
   id="svg88135"
   inkscape:version="0.92.3 (2405546, 2018-03-11)"
   sodipodi:docname="network-support.svg">
  <defs
     id="defs88129" />
  <sodipodi:namedview
     id="base"
     pagecolor="#ffffff"
     bordercolor="#666666"
     borderopacity="1.0"
     inkscape:pageopacity="0.0"
     inkscape:pageshadow="2"
     inkscape:zoom="2.8"
     inkscape:cx="-16.365175"
     inkscape:cy="20.439516"
     inkscape:document-units="px"
     inkscape:current-layer="layer1"
     showgrid="false"
     units="px"
     fit-margin-top="0"
     fit-margin-left="0"
     fit-margin-right="0"
     fit-margin-bottom="0"
     showborder="false"
     inkscape:window-width="1366"
     inkscape:window-height="745"
     inkscape:window-x="-8"
     inkscape:window-y="-8"
     inkscape:window-maximized="1" />
  <metadata
     id="metadata88132">
    <rdf:RDF>
      <cc:Work
         rdf:about="">
        <dc:format>image/svg+xml</dc:format>
        <dc:type
           rdf:resource="http://purl.org/dc/dcmitype/StillImage" />
        <dc:title></dc:title>
      </cc:Work>
    </rdf:RDF>
  </metadata>
  <g
     inkscape:label="Layer 1"
     inkscape:groupmode="layer"
     id="layer1"
     transform="translate(-147.90208,-77.182923)">
    <rect
       rx="3.8100002"
       ry="3.8100002"
       y="85.105865"
       x="147.91084"
       height="3.5939939"
       width="15.852371"
       id="rect62734"
       style="fill:#e6e6e6;fill-rule:evenodd;stroke-width:0.04314079" />
    <path
       id="path62525"
       d="M 163.61427,77.182923 H 148.0822 c -0.0991,0 -0.18012,0.0723 -0.18012,0.16061 v 9.137196 c 0,0.0883 0.081,0.16055 0.18012,0.16055 h 10.69206 v -0.47989 c 0,-0.0489 0.0446,-0.0886 0.0994,-0.0886 h 0.4186 c 0.0855,0 0.17444,-0.0564 0.20253,-0.12841 l 0.0791,-0.16929 c 0.0372,-0.0669 0.0193,-0.162656 -0.0416,-0.216386 l -0.29544,-0.26126 c -0.0187,-0.0166 -0.029,-0.0387 -0.029,-0.0623 0,-0.0236 0.0103,-0.0457 0.029,-0.0623 l 0.53578,-0.47382 c 0.0188,-0.0166 0.0439,-0.0258 0.0707,-0.0258 0.0268,0 0.052,0.009 0.0707,0.0258 l 0.2954,0.26126 c 0.0378,0.0335 0.0963,0.0535 0.15629,0.0535 0.0323,0 0.0631,-0.006 0.0891,-0.0172 l 0.19248,-0.0703 c 0.0793,-0.0241 0.14272,-0.10319 0.14272,-0.17947 v -0.3685 c 0,-0.0489 0.0446,-0.0886 0.0994,-0.0886 h 0.75858 c 0.0548,0 0.0994,0.0398 0.0994,0.0886 v 0.3685 c 0,0.0763 0.0635,0.15538 0.14443,0.18008 l 0.19266,0.0704 c 0.0241,0.0105 0.0549,0.0165 0.0872,0.0165 0.06,0 0.11845,-0.02 0.15632,-0.0535 l 0.29543,-0.261261 c 0.0188,-0.0166 0.0439,-0.0258 0.0707,-0.0258 0.0268,0 0.0519,0.009 0.0707,0.0258 l 0.53568,0.473861 c 0.0187,0.0166 0.029,0.0387 0.029,0.0623 0,0.0236 -0.0103,0.0457 -0.029,0.0623 l -0.29534,0.261291 c -0.0609,0.0537 -0.0788,0.14948 -0.0408,0.218015 l 0.0789,0.16916 c 0.0274,0.0705 0.11631,0.12687 0.20185,0.12687 h 0.41864 c 0.0548,0 0.0994,0.0397 0.0994,0.0886 v 0.40914 c 0.0196,-0.0257 0.031,-0.0566 0.031,-0.0898 v -9.137225 c 9e-5,-0.0883 -0.081,-0.16061 -0.18,-0.16061 z"
       style="fill:#1a1a1a;stroke-width:0.02930493"
       inkscape:connector-curvature="0" />
    <path
       id="path62527"
       d="m 148.69275,85.512633 c 0,0.0554 0.0486,0.1007 0.10808,0.1007 h 10.48211 l 0.48974,-0.45276 c 0.0188,-0.0174 0.0439,-0.027 0.0707,-0.027 0.0268,0 0.052,0.01 0.0707,0.027 l 0.2954,0.2731 c 0.0378,0.035 0.0963,0.0559 0.15629,0.0559 0.0323,0 0.0631,-0.006 0.089,-0.018 l 0.19248,-0.0735 c 0.0793,-0.0252 0.14272,-0.10788 0.14272,-0.18762 v -0.3852 c 0,-0.0511 0.0446,-0.0926 0.0994,-0.0926 h 0.75857 c 0.0548,0 0.0994,0.0416 0.0994,0.0926 v 0.3852 c 0,0.0798 0.0634,0.16243 0.14443,0.18825 l 0.19266,0.0736 c 0.0241,0.011 0.0549,0.0172 0.0872,0.0172 0.06,0 0.11845,-0.0209 0.15632,-0.0559 l 0.29543,-0.27311 c 0.0188,-0.0174 0.0439,-0.0269 0.0707,-0.0269 0.0268,0 0.0519,0.01 0.0707,0.0269 l 0.23876,0.22079 v -6.427781 h -14.31091 z"
       style="fill:#ffffff;stroke-width:0.02996177"
       inkscape:connector-curvature="0" />
    <g
       style="fill:#333333"
       transform="matrix(0.02375583,0,0,0.02375583,149.04453,77.47877)"
       id="g62535">
      <path
         id="path62531"
         d="m 249.615,253.532 c -9.128,-9.128 -22.482,-11.506 -33.822,-7.15 l -38.259,-38.259 -7.691,7.691 c -0.213,0.213 -0.319,0.511 -0.288,0.811 0.233,2.255 -0.384,4.48 -1.738,6.265 -0.252,0.332 -0.272,0.785 -0.05,1.138 2.131,3.384 1.903,7.5 -0.515,10.134 l 30.38,30.38 c -4.357,11.339 -1.979,24.695 7.15,33.824 7.902,7.902 19.084,11.038 29.911,8.389 0.29,-0.071 0.55,-0.221 0.753,-0.425 0.191,-0.191 0.336,-0.432 0.41,-0.702 0.157,-0.559 0,-1.158 -0.41,-1.567 l -19.516,-19.518 19.861,-19.862 19.517,19.519 c 0.41,0.408 1.009,0.567 1.567,0.41 0.271,-0.076 0.512,-0.219 0.703,-0.41 0.204,-0.205 0.353,-0.464 0.424,-0.756 2.652,-10.828 -0.484,-22.009 -8.387,-29.912 z"
         style="fill:#333333"
         inkscape:connector-curvature="0" />
      <path
         id="path62533"
         d="m 148.928,208.658 c 1.713,0 3.415,0.502 4.924,1.452 0.163,0.103 0.348,0.153 0.533,0.153 0.213,0 0.426,-0.068 0.605,-0.203 1.538,-1.168 3.384,-1.784 5.338,-1.784 0.309,0 0.619,0.016 0.927,0.048 0.034,0.003 0.069,0.005 0.103,0.005 0.264,0 0.519,-0.105 0.707,-0.293 l 7.692,-7.692 -38.259,-38.258 c 4.356,-11.34 1.978,-24.695 -7.15,-33.822 -7.903,-7.903 -19.084,-11.04 -29.911,-8.39 -0.291,0.072 -0.549,0.221 -0.753,0.424 -0.192,0.191 -0.336,0.432 -0.412,0.704 -0.156,0.559 10e-4,1.157 0.412,1.567 L 113.2,142.085 93.338,161.948 73.821,142.43 c -0.409,-0.41 -1.009,-0.566 -1.567,-0.41 -0.27,0.074 -0.511,0.218 -0.702,0.41 -0.205,0.204 -0.354,0.463 -0.425,0.754 -2.65,10.826 0.487,22.009 8.388,29.91 9.129,9.129 22.483,11.507 33.824,7.151 l 30.381,30.381 c 1.38,-1.267 3.214,-1.968 5.208,-1.968 z"
         style="fill:#333333"
         inkscape:connector-curvature="0" />
    </g>
    <path
       inkscape:connector-curvature="0"
       style="fill:#065ace;fill-opacity:1;stroke-width:0.0286065"
       d="m 162.89567,85.118743 h -14.09484 c -0.0594,0 -0.10808,0.0413 -0.10808,0.0918 v 0.658316 h 14.31094 v -0.658316 c 0,-0.0505 -0.0486,-0.0918 -0.10802,-0.0918 z"
       id="path62732" />
    <path
       id="path62539"
       d="m 162.89567,78.101513 h -14.09484 c -0.0594,0 -0.10808,0.11694 -0.10808,0.26002 v 1.8647 h 14.31094 v -1.8647 c 0,-0.14308 -0.0486,-0.26002 -0.10802,-0.26002 z"
       style="fill:#065ace;fill-opacity:1;stroke-width:0.04814517"
       inkscape:connector-curvature="0" />
    <rect
       y="85.971252"
       x="153.65327"
       height="0.68500829"
       width="10.10995"
       id="rect62738"
       style="fill:#1a1a1a;fill-opacity:1;fill-rule:evenodd;stroke-width:0.0310396" />
    <path
       id="path62543"
       d="m 160.70829,89.640169 c 0,0.0811 0.0663,0.14743 0.14743,0.14743 h 0.85746 c 0.0811,0 0.14743,-0.0664 0.14743,-0.14743 v -0.46727 c 0,-0.0811 0.0628,-0.16894 0.13954,-0.19522 l 0.21978,-0.09 c 0.0729,-0.0355 0.17967,-0.0178 0.23721,0.0393 l 0.33395,0.33139 c 0.0575,0.0571 0.15171,0.0571 0.20929,0 l 0.60551,-0.60099 c 0.0576,-0.0572 0.0576,-0.15062 0,-0.20774 l -0.33384,-0.33135 c -0.0576,-0.0571 -0.0753,-0.16336 -0.0393,-0.23609 l 0.0901,-0.21662 c 0.0266,-0.0766 0.11474,-0.13929 0.19578,-0.13929 h 0.47321 c 0.0812,0 0.14746,-0.0663 0.14746,-0.1474 v -0.84869 c 0,-0.0811 -0.0663,-0.14746 -0.14746,-0.14746 h -0.47321 c -0.0811,0 -0.16918,-0.0627 -0.19578,-0.13929 l -0.0901,-0.21662 c -0.0359,-0.0727 -0.0183,-0.17894 0.0393,-0.23603 l 0.33384,-0.331346 c 0.0576,-0.0571 0.0576,-0.15059 0,-0.20774 l -0.60551,-0.60091 c -0.0576,-0.0572 -0.15175,-0.0572 -0.20929,0 l -0.33395,0.33131 c -0.0576,0.0571 -0.16434,0.0748 -0.23725,0.0393 l -0.21974,-0.09 c -0.0768,-0.0262 -0.13954,-0.1141 -0.13954,-0.19518 v -0.46731 c 0,-0.0811 -0.0664,-0.14746 -0.14743,-0.14746 h -0.85746 c -0.0811,0 -0.14743,0.0664 -0.14743,0.14746 v 0.46731 c 0,0.0811 -0.0628,0.1689 -0.13954,0.19518 l -0.21967,0.09 c -0.0728,0.0355 -0.17967,0.0178 -0.23725,-0.0393 l -0.33391,-0.33131 c -0.0576,-0.0572 -0.15178,-0.0572 -0.20936,0 l -0.60565,0.60091 c -0.0575,0.0571 -0.0575,0.15055 0,0.20774 l 0.33395,0.331346 c 0.0576,0.0571 0.0753,0.16329 0.0393,0.23603 l -0.0901,0.21662 c -0.0267,0.0766 -0.11473,0.13929 -0.19581,0.13929 h -0.47317 c -0.0811,0 -0.14747,0.0664 -0.14747,0.14746 v 0.84869 c 0,0.0811 0.0663,0.1474 0.14747,0.1474 h 0.47317 c 0.0811,0 0.16915,0.0627 0.19581,0.13929 l 0.0901,0.21669 c 0.0359,0.0726 0.0183,0.1789 -0.0393,0.23602 l -0.33406,0.33135 c -0.0575,0.0571 -0.0575,0.15059 0,0.20774 l 0.60565,0.60099 c 0.0576,0.0571 0.15175,0.0571 0.20936,-7e-5 l 0.33384,-0.33132 c 0.0576,-0.0572 0.16434,-0.0749 0.23725,-0.0394 l 0.21974,0.0901 c 0.0768,0.0263 0.13954,0.1141 0.13954,0.19522 z"
       style="fill:#a4a4a4;fill-opacity:1;stroke-width:0.0350858"
       inkscape:connector-curvature="0" />
    <path
       id="path62545"
       d="m 161.28447,88.318099 c -0.75884,0 -1.37396,-0.61038 -1.37396,-1.36347 4e-5,-0.75315 0.61512,-1.363496 1.37396,-1.363496 0.75884,0 1.37396,0.610386 1.37396,1.363426 0,0.75312 -0.61512,1.36354 -1.37396,1.36354 z"
       style="fill:#e6e6e6;stroke-width:0.0350858"
       inkscape:connector-curvature="0" />
    <path
       id="path62547"
       d="m 160.32852,86.954599 c 0,-0.68263 0.50527,-1.247966 1.16492,-1.347886 -0.0681,-0.0103 -0.13792,-0.0156 -0.20897,-0.0156 -0.75884,0 -1.37392,0.610386 -1.37396,1.363506 0,0.75308 0.61512,1.36347 1.37396,1.36347 0.071,0 0.14087,-0.005 0.20897,-0.0156 -0.65965,-0.0999 -1.16492,-0.66526 -1.16492,-1.34782 z"
       style="fill:#e6e6e6;stroke-width:0.0350858"
       inkscape:connector-curvature="0" />
    <path
       id="path62549"
       d="m 161.28447,88.539319 c -0.87957,0 -1.59514,-0.71094 -1.59514,-1.58469 3e-5,-0.87381 0.71564,-1.584716 1.59514,-1.584716 0.87957,0 1.59518,0.710906 1.59518,1.584646 0,0.87382 -0.71561,1.58476 -1.59518,1.58476 z m 0,-2.72708 c -0.63558,0 -1.15271,0.51243 -1.15274,1.14239 0,0.62986 0.51713,1.1424 1.15274,1.1424 0.63565,0 1.15274,-0.5125 1.15281,-1.14247 0,-0.62989 -0.51716,-1.14232 -1.15281,-1.14232 z"
       style="fill:#bebebe;fill-opacity:1;stroke-width:0.0350858"
       inkscape:connector-curvature="0" />
    <path
       id="path62551"
       d="m 161.28447,87.531019 c -0.32079,0 -0.58081,-0.25812 -0.58081,-0.57642 0,-0.31844 0.26002,-0.5765 0.58081,-0.5765 0.3209,0 0.58081,0.25802 0.58081,0.57643 0,0.31837 -0.25995,0.57649 -0.58081,0.57649 z"
       style="fill:#e6e6e6;stroke-width:0.0350858"
       inkscape:connector-curvature="0" />
    <path
       id="path62553"
       d="m 161.1216,86.954599 c 0,-0.24515 0.15441,-0.45401 0.37184,-0.53734 -0.0649,-0.0249 -0.13522,-0.0391 -0.20897,-0.0391 -0.32079,0 -0.58081,0.25802 -0.58081,0.57649 0,0.31827 0.26002,0.57643 0.58081,0.57643 0.0738,0 0.14406,-0.0143 0.20897,-0.0391 -0.21739,-0.0834 -0.37184,-0.2922 -0.37184,-0.53734 z"
       style="fill:#ececec;stroke-width:0.0350858"
       inkscape:connector-curvature="0" />
    <path
       id="path62555"
       d="m 161.28447,87.752169 c -0.44219,0 -0.80199,-0.35777 -0.80199,-0.79754 0,-0.43987 0.3598,-0.79757 0.80199,-0.79757 0.44226,0 0.80199,0.3577 0.80199,0.7975 -10e-5,0.43984 -0.3598,0.79761 -0.80199,0.79761 z m 0,-1.15285 c -0.19831,0 -0.35959,0.1594 -0.35959,0.35528 0,0.19578 0.16128,0.35521 0.35959,0.35521 0.1983,0 0.35959,-0.15943 0.35959,-0.35528 0,-0.19578 -0.16129,-0.35521 -0.35959,-0.35521 z"
       style="fill:#a7a7a7;fill-opacity:1;stroke-width:0.0350858"
       inkscape:connector-curvature="0" />
    <g
       style="fill:#808080"
       transform="matrix(0.02454043,0,0,0.02454043,148.79492,77.415378)"
       id="g62561">
      <path
         id="path62557"
         d="m 140.441,226.608 10.829,10.829 c 0.899,0.899 1.565,1.945 2.003,3.06 l 4.692,-4.692 c -1.104,-0.48 -2.134,-1.172 -3.012,-2.051 l -10.829,-10.828 c -0.899,-0.9 -1.584,-1.926 -2.056,-3.008 l -4.69,4.69 c 1.136,0.445 2.178,1.116 3.063,2 z"
         style="fill:#808080"
         inkscape:connector-curvature="0" />
      <path
         id="path62559"
         d="m 252.734,130.761 -5.617,-5.617 c -0.625,-0.624 -1.785,-0.818 -2.578,-0.432 l -12.516,6.108 c -0.794,0.387 -1.76,1.353 -2.146,2.146 l -5.565,11.407 -62.956,62.956 c -2.776,-0.288 -5.633,0.589 -7.779,2.616 0.719,0.42 1.396,0.928 1.997,1.529 l 10.829,10.828 c 0.612,0.612 1.12,1.285 1.535,1.992 2.024,-2.146 2.899,-5 2.612,-7.773 l 62.953,-62.953 11.41,-5.566 c 0.794,-0.387 1.76,-1.353 2.146,-2.146 l 6.107,-12.517 c 0.387,-0.793 0.191,-1.953 -0.432,-2.578 z"
         style="fill:#808080"
         inkscape:connector-curvature="0" />
    </g>
    <path
       id="path62563"
       d="m 153.10894,83.149763 c -0.10982,0.10981 -0.29841,0.10091 -0.41912,-0.0198 l -0.33613,-0.3361 c -0.12072,-0.12074 -0.12966,-0.30934 -0.0198,-0.41915 0.10982,-0.10982 0.29842,-0.10091 0.41913,0.0198 l 0.33613,0.3361 c 0.12071,0.12071 0.12965,0.30931 0.0198,0.41916 z"
       style="fill:#cccccc;stroke-width:0.0310396"
       inkscape:connector-curvature="0" />
    <g
       style="fill:#cccccc;fill-opacity:1"
       transform="matrix(0.02379369,0,0,0.02379369,150.13524,77.498799)"
       id="g62571">
      <path
         id="path62565"
         d="M 430.432,147.983 H 298.56 c -4.142,0 -7.5,-3.357 -7.5,-7.5 0,-4.143 3.358,-7.5 7.5,-7.5 h 131.871 c 4.143,0 7.5,3.357 7.5,7.5 0.001,4.143 -3.357,7.5 -7.499,7.5 z"
         style="fill:#cccccc;fill-opacity:1"
         inkscape:connector-curvature="0" />
      <path
         id="path62567"
         d="M 430.432,172.471 H 298.56 c -4.142,0 -7.5,-3.357 -7.5,-7.5 0,-4.143 3.358,-7.5 7.5,-7.5 h 131.871 c 4.143,0 7.5,3.357 7.5,7.5 0.001,4.142 -3.357,7.5 -7.499,7.5 z"
         style="fill:#cccccc;fill-opacity:1"
         inkscape:connector-curvature="0" />
      <path
         id="path62569"
         d="M 430.432,196.958 H 298.56 c -4.142,0 -7.5,-3.357 -7.5,-7.5 0,-4.143 3.358,-7.5 7.5,-7.5 h 131.871 c 4.143,0 7.5,3.357 7.5,7.5 0.001,4.143 -3.357,7.5 -7.499,7.5 z"
         style="fill:#cccccc;fill-opacity:1"
         inkscape:connector-curvature="0" />
    </g>
    <g
       style="fill:#065ace;fill-opacity:1"
       transform="matrix(0.02410831,0,0,0.02410831,150.05254,77.397879)"
       id="g62579">
      <path
         id="path62573"
         d="M 430.432,237.979 H 298.56 c -4.142,0 -7.5,-3.357 -7.5,-7.5 0,-4.143 3.358,-7.5 7.5,-7.5 h 131.871 c 4.143,0 7.5,3.357 7.5,7.5 0,4.143 -3.357,7.5 -7.499,7.5 z"
         style="fill:#065ace;fill-opacity:1"
         inkscape:connector-curvature="0" />
      <path
         id="path62575"
         d="M 430.432,262.466 H 298.56 c -4.142,0 -7.5,-3.357 -7.5,-7.5 0,-4.143 3.358,-7.5 7.5,-7.5 h 131.871 c 4.143,0 7.5,3.357 7.5,7.5 0.001,4.142 -3.357,7.5 -7.499,7.5 z"
         style="fill:#065ace;fill-opacity:1"
         inkscape:connector-curvature="0" />
      <path
         id="path62577"
         d="M 364.085,286.953 H 298.56 c -4.142,0 -7.5,-3.357 -7.5,-7.5 0,-4.143 3.358,-7.5 7.5,-7.5 h 65.525 c 4.143,0 7.5,3.357 7.5,7.5 0,4.143 -3.357,7.5 -7.5,7.5 z"
         style="fill:#065ace;fill-opacity:1"
         inkscape:connector-curvature="0" />
    </g>
    <path
       id="path62581"
       d="m 151.61779,84.440093 c -0.0894,0.0895 -0.2358,0.0895 -0.32526,0 l -0.24905,-0.24902 c -0.0894,-0.0895 -0.0894,-0.2358 0,-0.32526 l 1.06698,-1.06695 c 0.0894,-0.0895 0.2358,-0.0895 0.32524,0 l 0.24904,0.24905 c 0.0894,0.0894 0.0894,0.23579 0,0.32526 z"
       style="fill:#cccccc;stroke-width:0.0229981"
       inkscape:connector-curvature="0" />
    <g
       style="fill:#999999"
       transform="matrix(0.02582812,0,0,0.02582812,148.75041,76.934519)"
       id="g62587">
      <path
         id="path62583"
         d="m 97.455,286.438 c -3.889,-3.89 -3.889,-10.253 0,-14.143 l 45.043,-45.043 -1.35,-1.351 c -3.889,-3.89 -10.253,-3.89 -14.142,0 l -46.394,46.393 c -3.889,3.89 -3.889,10.253 0,14.143 l 10.829,10.828 c 3.889,3.89 10.253,3.89 14.143,0 l 1.35,-1.35 z"
         style="fill:#999999"
         inkscape:connector-curvature="0" />
      <path
         id="path62585"
         d="m 149.278,216.629 c 3.538,-3.538 9.614,-3.251 13.503,0.639 l -6.5,-6.5 c -3.889,-3.89 -9.966,-4.177 -13.503,-0.639 -3.537,3.538 -3.25,9.614 0.639,13.504 l 6.497,6.496 c -3.886,-3.889 -4.172,-9.963 -0.636,-13.5 z"
         style="fill:#999999"
         inkscape:connector-curvature="0" />
    </g>
    <g
       transform="matrix(0.11731505,0,0,0.11731505,110.66891,51.083449)"
       id="g62796">
      <g
         style="fill:#e6e6e6"
         id="g62752"
         transform="translate(1.6660179e-6,4.9366185)">
        <rect
           y="314.51913"
           x="378.39307"
           height="18.520832"
           width="8.6934528"
           id="rect62740"
           style="fill:#cccccc;fill-rule:evenodd;stroke:none;stroke-width:0.22296461" />
        <path
           inkscape:connector-curvature="0"
           id="path62748"
           d="m 378.47233,314.51914 v 18.52084 h -8.44603 z"
           style="fill:#cccccc;fill-opacity:1;stroke:none;stroke-width:0.26458332px;stroke-linecap:butt;stroke-linejoin:miter;stroke-opacity:1" />
      </g>
      <rect
         transform="scale(-1,1)"
         y="319.45575"
         x="-395.40912"
         height="18.520832"
         width="8.6934528"
         id="rect62754"
         style="fill:#b3b3b3;fill-opacity:1;fill-rule:evenodd;stroke:none;stroke-width:0.22296461" />
      <path
         inkscape:connector-curvature="0"
         id="path62756"
         d="m 395.32988,319.45575 v 18.52084 h 8.44603 z"
         style="fill:#b3b3b3;fill-opacity:1;stroke:none;stroke-width:0.26458332px;stroke-linecap:butt;stroke-linejoin:miter;stroke-opacity:1" />
    </g>
    <circle
       id="circle62537"
       r="0.48629749"
       cy="87.633148"
       cx="156.09193"
       style="fill:#999999;stroke-width:0.0310396" />
    <rect
       rx="1.7991667"
       ry="2.5135417"
       y="90.709221"
       x="153.65327"
       height="0.44342294"
       width="4.8776526"
       id="rect62798"
       style="fill:#999999;fill-opacity:1;fill-rule:evenodd;stroke-width:0.0310396" />
    <rect
       style="fill:#808080;fill-rule:evenodd;stroke-width:0.02215843"
       id="rect62800"
       width="2.485743"
       height="0.44342294"
       x="156.04518"
       y="90.709221"
       ry="2.5135417"
       rx="1.7991667" />
    <rect
       y="90.705742"
       x="156.03647"
       height="0.44471654"
       width="0.47410411"
       id="rect62804"
       style="fill:#808080;fill-opacity:1;fill-rule:evenodd;stroke-width:0.03301319" />
  </g>
</svg>
